<?xml version="1.0" encoding="UTF-8" standalone="no"?>
<!DOCTYPE svg PUBLIC "-//W3C//DTD SVG 1.1//EN"
 "http://www.w3.org/Graphics/SVG/1.1/DTD/svg11.dtd">
<!-- Generated by graphviz version 2.40.1 (0)
 -->
<!-- Title: snakemake_dag Pages: 1 -->
<svg width="163pt" height="332pt"
 viewBox="0.00 0.00 163.00 332.00" xmlns="http://www.w3.org/2000/svg" xmlns:xlink="http://www.w3.org/1999/xlink">
<g id="graph0" class="graph" transform="scale(1 1) rotate(0) translate(4 328)">
<title>snakemake_dag</title>
<polygon fill="#ffffff" stroke="transparent" points="-4,4 -4,-328 159,-328 159,4 -4,4"/>
<!-- 0 -->
<g id="node1" class="node">
<title>0</title>
<path fill="none" stroke="#d85656" stroke-width="2" d="M113,-36C113,-36 42,-36 42,-36 36,-36 30,-30 30,-24 30,-24 30,-12 30,-12 30,-6 36,0 42,0 42,0 113,0 113,0 119,0 125,-6 125,-12 125,-12 125,-24 125,-24 125,-30 119,-36 113,-36"/>
<text text-anchor="middle" x="77.5" y="-21" font-family="sans" font-size="10.00" fill="#000000">train_ml</text>
<text text-anchor="middle" x="77.5" y="-10" font-family="sans" font-size="10.00" fill="#000000">method: glmnet</text>
</g>
<!-- 1 -->
<g id="node2" class="node">
<title>1</title>
<path fill="none" stroke="#56d892" stroke-width="2" stroke-dasharray="5,2" d="M143,-108C143,-108 12,-108 12,-108 6,-108 0,-102 0,-96 0,-96 0,-84 0,-84 0,-78 6,-72 12,-72 12,-72 143,-72 143,-72 149,-72 155,-78 155,-84 155,-84 155,-96 155,-96 155,-102 149,-108 143,-108"/>
<text text-anchor="middle" x="77.5" y="-93" font-family="sans" font-size="10.00" fill="#000000">ml_prep</text>
<text text-anchor="middle" x="77.5" y="-82" font-family="sans" font-size="10.00" fill="#000000">ml_variables: new_seq_data</text>
</g>
<!-- 1&#45;&gt;0 -->
<g id="edge1" class="edge">
<title>1&#45;&gt;0</title>
<path fill="none" stroke="#c0c0c0" stroke-width="2" d="M77.5,-71.8314C77.5,-64.131 77.5,-54.9743 77.5,-46.4166"/>
<polygon fill="#c0c0c0" stroke="#c0c0c0" stroke-width="2" points="81.0001,-46.4132 77.5,-36.4133 74.0001,-46.4133 81.0001,-46.4132"/>
</g>
<!-- 2 -->
<g id="node3" class="node">
<title>2</title>
<path fill="none" stroke="#567bd8" stroke-width="2" stroke-dasharray="5,2" d="M95,-180C95,-180 60,-180 60,-180 54,-180 48,-174 48,-168 48,-168 48,-156 48,-156 48,-150 54,-144 60,-144 60,-144 95,-144 95,-144 101,-144 107,-150 107,-156 107,-156 107,-168 107,-168 107,-174 101,-180 95,-180"/>
<text text-anchor="middle" x="77.5" y="-159.5" font-family="sans" font-size="10.00" fill="#000000">tokenize</text>
</g>
<!-- 2&#45;&gt;1 -->
<g id="edge2" class="edge">
<title>2&#45;&gt;1</title>
<path fill="none" stroke="#c0c0c0" stroke-width="2" d="M77.5,-143.8314C77.5,-136.131 77.5,-126.9743 77.5,-118.4166"/>
<polygon fill="#c0c0c0" stroke="#c0c0c0" stroke-width="2" points="81.0001,-118.4132 77.5,-108.4133 74.0001,-118.4133 81.0001,-118.4132"/>
</g>
<!-- 3 -->
<g id="node4" class="node">
<title>3</title>
<path fill="none" stroke="#56d86b" stroke-width="2" stroke-dasharray="5,2" d="M100.5,-252C100.5,-252 54.5,-252 54.5,-252 48.5,-252 42.5,-246 42.5,-240 42.5,-240 42.5,-228 42.5,-228 42.5,-222 48.5,-216 54.5,-216 54.5,-216 100.5,-216 100.5,-216 106.5,-216 112.5,-222 112.5,-228 112.5,-228 112.5,-240 112.5,-240 112.5,-246 106.5,-252 100.5,-252"/>
<text text-anchor="middle" x="77.5" y="-231.5" font-family="sans" font-size="10.00" fill="#000000">cleanHTML</text>
</g>
<!-- 3&#45;&gt;2 -->
<g id="edge3" class="edge">
<title>3&#45;&gt;2</title>
<path fill="none" stroke="#c0c0c0" stroke-width="2" d="M77.5,-215.8314C77.5,-208.131 77.5,-198.9743 77.5,-190.4166"/>
<polygon fill="#c0c0c0" stroke="#c0c0c0" stroke-width="2" points="81.0001,-190.4132 77.5,-180.4133 74.0001,-190.4133 81.0001,-190.4132"/>
</g>
<!-- 4 -->
<g id="node5" class="node">
<title>4</title>
<path fill="none" stroke="#56a9d8" stroke-width="2" stroke-dasharray="5,2" d="M126.5,-324C126.5,-324 28.5,-324 28.5,-324 22.5,-324 16.5,-318 16.5,-312 16.5,-312 16.5,-300 16.5,-300 16.5,-294 22.5,-288 28.5,-288 28.5,-288 126.5,-288 126.5,-288 132.5,-288 138.5,-294 138.5,-300 138.5,-300 138.5,-312 138.5,-312 138.5,-318 132.5,-324 126.5,-324"/>
<text text-anchor="middle" x="77.5" y="-309" font-family="sans" font-size="10.00" fill="#000000">webscrape</text>
<text text-anchor="middle" x="77.5" y="-298" font-family="sans" font-size="10.00" fill="#000000">datasets: groundtruth</text>
</g>
<!-- 4&#45;&gt;3 -->
<g id="edge4" class="edge">
<title>4&#45;&gt;3</title>
<path fill="none" stroke="#c0c0c0" stroke-width="2" d="M77.5,-287.8314C77.5,-280.131 77.5,-270.9743 77.5,-262.4166"/>
<polygon fill="#c0c0c0" stroke="#c0c0c0" stroke-width="2" points="81.0001,-262.4132 77.5,-252.4133 74.0001,-262.4133 81.0001,-262.4132"/>
</g>
</g>
</svg>
